<?xml version="1.0" encoding="utf-8"?>
<!-- Generator: Adobe Illustrator 27.5.0, SVG Export Plug-In . SVG Version: 6.00 Build 0)  -->
<svg version="1.1" xmlns="http://www.w3.org/2000/svg" xmlns:xlink="http://www.w3.org/1999/xlink" x="0px" y="0px"
	 viewBox="0 0 500 500" style="enable-background:new 0 0 500 500;" xml:space="preserve">
<g id="BACKGROUND">
	<rect style="fill:#E4D6CC;" width="500" height="500"/>
	<circle style="fill:#F4E8D8;" cx="383.742" cy="151.63" r="37.075"/>
	<circle style="fill:#F4E8D8;" cx="190.076" cy="258.475" r="87.637"/>
</g>
<g id="OBJECTS">
	<ellipse style="fill:#C9B5A9;" cx="263.127" cy="442.928" rx="201.062" ry="13.096"/>
	<g>
		<path style="fill:#FFFFFF;" d="M171.407,49.849l4.344,1.409l-4.344,1.408c-1.771,0.574-3.159,1.962-3.733,3.733l-1.409,4.344
			l-1.409-4.344c-0.574-1.771-1.962-3.159-3.733-3.733l-4.344-1.408l4.344-1.409c1.771-0.574,3.159-1.962,3.733-3.733l1.409-4.344
			l1.409,4.344C168.248,47.887,169.636,49.275,171.407,49.849z"/>
		<path style="fill:#FFFFFF;" d="M437.788,331.465l4.344,1.409l-4.344,1.409c-1.771,0.574-3.159,1.962-3.733,3.733l-1.408,4.344
			l-1.409-4.344c-0.574-1.771-1.962-3.159-3.733-3.733l-4.344-1.409l4.344-1.409c1.771-0.574,3.159-1.962,3.733-3.733l1.409-4.344
			l1.408,4.344C434.629,329.502,436.017,330.89,437.788,331.465z"/>
		<path style="fill:#FFFFFF;" d="M60.973,294.155l4.344,1.409l-4.344,1.409c-1.771,0.574-3.159,1.962-3.733,3.733l-1.409,4.344
			l-1.408-4.344c-0.574-1.771-1.962-3.159-3.733-3.733l-4.344-1.409l4.344-1.409c1.771-0.574,3.159-1.962,3.733-3.733l1.408-4.344
			l1.409,4.344C57.814,292.193,59.202,293.581,60.973,294.155z"/>
		<path style="fill:#FFFFFF;" d="M256.093,162.024l2.522,0.818l-2.522,0.818c-1.028,0.333-1.834,1.139-2.168,2.167l-0.818,2.522
			l-0.818-2.522c-0.333-1.028-1.14-1.834-2.168-2.167l-2.522-0.818l2.522-0.818c1.028-0.333,1.834-1.139,2.168-2.168l0.818-2.522
			l0.818,2.522C254.259,160.885,255.065,161.691,256.093,162.024z"/>
		<path style="fill:#FFFFFF;" d="M102.087,107.742l2.522,0.818l-2.522,0.818c-1.028,0.333-1.834,1.139-2.168,2.167l-0.818,2.522
			l-0.818-2.522c-0.333-1.028-1.139-1.834-2.168-2.167l-2.522-0.818l2.522-0.818c1.028-0.333,1.834-1.139,2.168-2.168l0.818-2.522
			l0.818,2.522C100.253,106.602,101.059,107.408,102.087,107.742z"/>
		<path style="fill:#FFFFFF;" d="M70.364,272.199l2.522,0.818l-2.522,0.818c-1.028,0.333-1.834,1.139-2.168,2.168l-0.818,2.522
			l-0.818-2.522c-0.333-1.028-1.139-1.834-2.168-2.168l-2.522-0.818l2.522-0.818c1.028-0.333,1.834-1.139,2.168-2.168l0.818-2.522
			l0.818,2.522C68.53,271.059,69.336,271.865,70.364,272.199z"/>
	</g>
	<g>
		<path style="fill:#2E344B;" d="M396.562,335.737c0,0-8.831,0.966-12.28,2.897c-3.449,1.932-5.105,8.417,0.966,8.417
			c6.071,0,15.729,0,19.869,0s2.484-9.245,0.276-11.728L396.562,335.737z"/>
		<path style="fill:#D8877B;" d="M392.516,321.773c0,0,2.247,12.06,2.871,14.038c0.957,3.031,9.452,2.873,10.209-0.478
			c1.117-4.945,1.117-14.995,1.117-14.995L392.516,321.773z"/>
		<path style="fill:#FFFFFF;" d="M390.96,338.885c-0.193-0.349-0.443-0.679-0.736-0.95c-0.306-0.283-0.646-0.534-0.996-0.759
			c-0.368-0.237-0.795-0.528-1.25-0.498c-0.297,0.02-0.609,0.31-0.485,0.637c0.052,0.138,0.104,0.266,0.202,0.379
			c0.058,0.068,0.125,0.132,0.189,0.195c0.06,0.059,0.129,0.108,0.196,0.16c0.011,0.008,0.035,0.025,0.052,0.036
			c-0.009-0.006-0.015-0.01-0.036-0.024c0.075,0.05,0.144,0.114,0.214,0.171c0.275,0.227,0.539,0.469,0.773,0.738
			c0.05,0.057,0.094,0.118,0.145,0.175c-0.173-0.192,0.042,0.057,0.074,0.097c0.085,0.135,0.185,0.26,0.263,0.401
			c0.041,0.073,0.077,0.147,0.113,0.223c0.01,0.02,0.013,0.027,0.016,0.031c0.027,0.066,0.052,0.132,0.086,0.195
			c0.034,0.064,0.068,0.129,0.103,0.192c0.086,0.156,0.219,0.252,0.364,0.344c0.305,0.191,0.688,0.051,0.875-0.229
			C391.435,339.926,391.208,339.333,390.96,338.885z"/>
		<path style="fill:#FFFFFF;" d="M394.457,338.554c-0.068-0.221-0.151-0.441-0.267-0.642c-0.203-0.351-0.455-0.682-0.735-0.976
			c-0.561-0.588-1.318-1.113-2.144-1.192c-0.214-0.021-0.426,0.155-0.503,0.338c-0.078,0.184-0.056,0.466,0.114,0.601
			c0.155,0.123,0.311,0.236,0.475,0.346c0.037,0.025,0.074,0.051,0.111,0.077c0.005,0.004,0.012,0.007,0.018,0.01
			c0.057,0.03,0.113,0.094,0.161,0.135c0.255,0.215,0.486,0.441,0.697,0.698c0.023,0.032,0.046,0.064,0.069,0.097
			c0.046,0.067,0.091,0.136,0.133,0.206c0.085,0.14,0.163,0.286,0.232,0.435c0.069,0.149,0.14,0.296,0.21,0.444
			c0.01,0.022,0.01,0.021,0.008,0.016c0.012,0.028,0.024,0.057,0.036,0.085c0.043,0.079,0.108,0.156,0.173,0.217
			c0.057,0.053,0.119,0.103,0.176,0.156c0.334,0.313,0.852,0.168,0.992-0.262C394.5,339.079,394.543,338.831,394.457,338.554z"/>
		<path style="fill:#FFFFFF;" d="M404.081,340.927c-0.092-0.327-0.257-0.611-0.497-0.852c-0.13-0.101-0.26-0.201-0.391-0.302
			c-0.301-0.175-0.626-0.263-0.975-0.264c-0.266-0.01-0.514,0.045-0.744,0.166c-0.239,0.078-0.446,0.211-0.621,0.399
			c-0.188,0.175-0.321,0.382-0.399,0.621c-0.121,0.23-0.176,0.478-0.166,0.744c0.023,0.171,0.046,0.342,0.069,0.513
			c0.092,0.327,0.257,0.611,0.496,0.852c0.13,0.101,0.261,0.201,0.391,0.302c0.301,0.175,0.626,0.262,0.974,0.263
			c0.266,0.01,0.514-0.045,0.744-0.166c0.239-0.078,0.447-0.211,0.621-0.399c0.188-0.175,0.321-0.382,0.399-0.621
			c0.121-0.23,0.176-0.478,0.166-0.744C404.126,341.269,404.104,341.098,404.081,340.927z"/>
		<path style="fill:#B44E50;" d="M392.941,324.029c1.971,0.878,7.049,2.541,13.62,2.201c0.151-3.245,0.151-5.892,0.151-5.892
			l-14.197,1.436C392.516,321.773,392.684,322.678,392.941,324.029z"/>
		<path style="fill:#2E344B;" d="M361.786,335.737c0,0-8.831,0.966-12.28,2.897c-3.449,1.932-5.105,8.417,0.966,8.417
			s15.73,0,19.869,0c4.139,0,2.484-9.245,0.276-11.728L361.786,335.737z"/>
		<path style="fill:#D8877B;" d="M357.74,321.773c0,0,2.247,12.06,2.871,14.038c0.957,3.031,9.452,2.873,10.209-0.478
			c1.117-4.945,1.117-14.995,1.117-14.995L357.74,321.773z"/>
		<path style="fill:#FFFFFF;" d="M356.184,338.885c-0.193-0.349-0.443-0.679-0.736-0.95c-0.306-0.283-0.646-0.534-0.996-0.759
			c-0.368-0.237-0.795-0.528-1.251-0.498c-0.297,0.02-0.608,0.31-0.485,0.637c0.052,0.138,0.104,0.266,0.202,0.379
			c0.058,0.068,0.126,0.132,0.189,0.195c0.06,0.059,0.129,0.108,0.196,0.16c0.011,0.008,0.035,0.025,0.052,0.036
			c-0.008-0.006-0.015-0.01-0.036-0.024c0.075,0.05,0.144,0.114,0.214,0.171c0.276,0.227,0.539,0.469,0.773,0.738
			c0.05,0.057,0.094,0.118,0.145,0.175c-0.173-0.192,0.042,0.057,0.074,0.097c0.085,0.135,0.184,0.26,0.263,0.401
			c0.041,0.073,0.077,0.147,0.113,0.223c0.01,0.02,0.013,0.027,0.016,0.031c0.027,0.066,0.052,0.132,0.085,0.195
			c0.035,0.064,0.068,0.129,0.103,0.192c0.086,0.156,0.219,0.252,0.364,0.344c0.305,0.191,0.688,0.051,0.875-0.229
			C356.659,339.926,356.433,339.333,356.184,338.885z"/>
		<path style="fill:#FFFFFF;" d="M359.682,338.554c-0.068-0.221-0.151-0.441-0.266-0.642c-0.203-0.351-0.455-0.682-0.735-0.976
			c-0.561-0.588-1.318-1.113-2.144-1.192c-0.214-0.021-0.426,0.155-0.503,0.338c-0.078,0.184-0.056,0.466,0.114,0.601
			c0.155,0.123,0.311,0.236,0.475,0.346c0.037,0.025,0.074,0.051,0.111,0.077c0.005,0.004,0.012,0.007,0.018,0.01
			c0.057,0.03,0.113,0.094,0.161,0.135c0.255,0.215,0.486,0.441,0.697,0.698c0.023,0.032,0.046,0.064,0.069,0.097
			c0.047,0.067,0.091,0.136,0.133,0.206c0.085,0.14,0.163,0.286,0.232,0.435c0.068,0.149,0.14,0.296,0.21,0.444
			c0.01,0.022,0.01,0.021,0.008,0.016c0.012,0.028,0.024,0.057,0.036,0.085c0.043,0.079,0.108,0.156,0.173,0.217
			c0.057,0.053,0.119,0.103,0.176,0.156c0.334,0.313,0.852,0.168,0.992-0.262C359.725,339.079,359.767,338.831,359.682,338.554z"/>
		<path style="fill:#FFFFFF;" d="M369.305,340.927c-0.092-0.327-0.257-0.611-0.497-0.852c-0.13-0.101-0.26-0.201-0.391-0.302
			c-0.301-0.175-0.626-0.263-0.974-0.264c-0.266-0.01-0.514,0.045-0.744,0.166c-0.239,0.078-0.446,0.211-0.621,0.399
			c-0.188,0.175-0.321,0.382-0.399,0.621c-0.121,0.23-0.176,0.478-0.166,0.744c0.023,0.171,0.046,0.342,0.069,0.513
			c0.092,0.327,0.257,0.611,0.496,0.852c0.13,0.101,0.26,0.201,0.391,0.302c0.301,0.175,0.626,0.262,0.974,0.263
			c0.266,0.01,0.514-0.045,0.744-0.166c0.239-0.078,0.446-0.211,0.621-0.399c0.188-0.175,0.321-0.382,0.399-0.621
			c0.121-0.23,0.176-0.478,0.166-0.744C369.351,341.269,369.328,341.098,369.305,340.927z"/>
		<path style="fill:#B44E50;" d="M358.166,324.029c1.971,0.878,7.049,2.541,13.62,2.201c0.151-3.245,0.151-5.892,0.151-5.892
			l-14.197,1.436C357.74,321.773,357.909,322.678,358.166,324.029z"/>
		<path style="fill:#4F6E59;" d="M400.97,225.741c1.117,3.669,4.626,13.24,4.945,24.407s1.595,64.925,2.074,73.22h-17.069
			c0,0-11.326-41.156-11.964-72.263c0,0-4.108,24.868-5.583,35.733c-1.755,12.921,0.638,36.69,0.638,36.69h-18.185
			c0,0-5.902-39.561-3.19-60.299c2.712-20.738,7.338-38.923,7.338-38.923L400.97,225.741z"/>
		<path style="fill:#2E344B;" d="M402.243,229.776c-0.521-1.696-0.98-3.073-1.273-4.035l-20.549-0.72l-4.017,1.198l0.08,4.068
			C376.484,230.288,388.606,233.749,402.243,229.776z"/>
		<path style="fill:#2E344B;" d="M349.525,188.912c0,0,5.145,2.512,10.588,2.094c5.444-0.419-0.359-4.187-0.359-4.187
			L349.525,188.912z"/>
		<path style="fill:#D8877B;" d="M361.808,189.371c0.42-0.116-1.516,7.258-3.19,10.847c-1.043,2.235-9.093,12.841-9.093,12.841
			l-7.099-4.307c0,0,7.099-12.004,7.697-13.44c0.598-1.436,2.034-11.844,2.034-11.844l7.418-1.077L361.808,189.371z"/>
		<path style="fill:#B44E50;" d="M352.157,183.468c0,0-0.397,2.876-0.86,5.813c1.383,0.294,6.795,1.519,9.933,3.277
			c0.496-1.863,0.761-3.238,0.578-3.187l-1.928-6.026l-1.943-0.715L352.157,183.468z"/>
		<path style="fill:#6779B7;" d="M389.545,162.464c5.682,0.785,10.229,2.579,12.861,5.331c2.632,2.752,3.35,28.355,2.154,31.824
			l-1.356-0.758l-3.071,2.911c0,0-0.12,15.553,2.393,24.287c0,0-19.86,9.093-43.549-1.675c0,0,4.666-8.016,3.35-21.535
			c-0.209-2.147-2.512-7.777-2.393-13.16c0,0-6.939-1.316-10.409-0.778c0,0,3.111-16.092,5.982-19.8
			c2.871-3.709,9.212-5.623,11.605-6.221c2.393-0.598,6.819,0.837,6.819,0.837l9.691-0.479L389.545,162.464z"/>
		<path style="fill:#2E344B;" d="M402.03,224.101c-0.064-0.284-0.125-0.571-0.185-0.863c-1.947,0.642-3.906,1.234-5.909,1.711
			c-2.967,0.706-5.97,1.202-9.005,1.493c-6.077,0.583-12.23,0.379-18.287-0.332c-2.948-0.346-5.873-0.833-8.794-1.348
			c0.778,0.339,1.551,0.657,2.32,0.955c4.717,1.023,9.57,1.546,14.365,1.737c6.196,0.247,12.447-0.222,18.525-1.459
			C397.407,225.516,399.754,224.896,402.03,224.101z"/>
		<path style="fill:#2E344B;" d="M332.376,209.311l42.793,35.37c2.301,1.902,5.689,1.668,7.707-0.532l0.725-0.791
			c2.038-2.221,1.956-5.656-0.185-7.777l-39.395-39.032L332.376,209.311z"/>
		<path style="fill:#5F2A3D;" d="M384.083,128.907c0,0,1.113-7.459,9.932-7.886c8.819-0.427,12.335,6.233,13.061,12.838
			c0.727,6.605,1.616,10.07,3.737,11.417c0,0-8.551,7.275-15.478-1.284C388.409,135.433,384.083,128.907,384.083,128.907z"/>
		<path style="fill:#2E344B;" d="M390.29,121.73c-5.424,1.954-6.207,7.177-6.207,7.177s4.154,6.262,10.829,14.557
			c1.207-0.196,2.143-1.283,2.618-3.663C399.561,129.628,392.968,123.681,390.29,121.73z"/>
		<path style="fill:#5F2A3D;" d="M369.947,157.799c-5.534-3.829-8.145-3.128-9.255-17.561c-1.11-14.433,21.509-26.574,32.438-12.726
			c6.873,8.708,7.476,24.329-3.587,28.141C377.154,159.922,369.947,157.799,369.947,157.799z"/>
		<circle style="fill:#2E344B;" cx="313.234" cy="178.483" r="37.926"/>
		<circle style="fill:#B9CFE6;" cx="313.234" cy="178.483" r="28.582"/>
		<path style="fill:#D8877B;" d="M371.539,156.749c0,0-0.08,2.074-0.479,3.749c-0.399,1.675-3.948,2.393-3.948,2.393
			s2.433,5.982,8.016,7.099l1.914,8.056l2.712-7.737c0,0,6.521-0.984,9.791-7.844c0,0-1.257-0.132-2.932-0.85
			c-1.675-0.718-1.595-5.583-1.595-5.583L371.539,156.749z"/>
		<path style="fill:#D8877B;" d="M337.322,218.722c-1.046-3.746,0-6.221,0.877-7.418c0.877-1.196,1.595,0.319,1.675,0.798
			c0.08,0.479-0.16,3.669-0.16,3.669s0.638-1.994,1.914-4.227c1.276-2.233,2.712-2.951,3.589-1.276c0,0,1.276-0.718,2.074,1.196
			c0,0,1.675,0.319,1.356,2.552c0,0,1.117,0.957,0.718,2.552s-2.154,3.43-2.871,5.902
			C345.776,224.944,338.742,223.806,337.322,218.722z"/>
		<path style="fill:#2E344B;" d="M404.56,199.62c-2.453,0.658-13.101-1.974-14.477-2.752c0,0,0.748-0.748,1.795-0.957l6.461,1.645
			l2.632,0.628l2.233,0.678L404.56,199.62z"/>
		<path style="fill:#D8877B;" d="M391.878,195.911c0,0-1.117,4.108-2.871,6.58c-1.755,2.473-18.106,19.182-18.983,19.9
			c-0.877,0.718-6.62,0.479-8.295,1.516c-1.675,1.037-0.319,2.154,0.957,2.074c1.276-0.08,3.43,0.239,3.43,0.239
			s-1.356,2.393-2.154,3.19c-0.798,0.798-3.19,1.994-4.068,2.233c-0.877,0.239-0.718,2.233,0.319,2.154c0,0-1.037,1.835,1.117,2.552
			c0,0-0.479,1.196,1.595,1.356c0,0,0.08,0.558,2.313,0.399c2.233-0.16,5.025-3.031,6.221-4.227c1.196-1.196,3.27-4.945,3.828-5.344
			c0.558-0.399,18.903-15.473,21.695-18.664c2.792-3.191,6.221-11.007,6.221-11.007S397.381,194.794,391.878,195.911z"/>
		<path style="fill:#B44E50;" d="M387.562,161.975c-0.297-0.101-0.611-0.216-0.949-0.361c-1.675-0.718-1.595-5.583-1.595-5.583
			l-7.243,0.386l-4.425,0.706l-1.966,1.472c-0.03,0.249-0.067,0.511-0.109,0.776C372.768,160.726,378.406,164.984,387.562,161.975z"
			/>
		<path style="fill:#D8877B;" d="M390.596,141.755c0,0,3.384-2.005,5.513,1.374c2.129,3.379-1.342,6.255-4.192,6.254
			c0,0-2.691,11.924-12.995,12.368c-10.255,0.442-14.667-10.06-15.498-17.832c0,0,4.616-2.182,5.128-4.683
			c0.512-2.501,6.821-2.773,9.969-7.37c0,0,2.429,4.605,5.414,4.848C386.919,136.956,389.903,140.05,390.596,141.755z"/>
		<path style="fill:#B44E50;" d="M383.934,136.713c-2.985-0.243-5.414-4.848-5.414-4.848c-3.148,4.597-9.457,4.869-9.969,7.37
			c-0.512,2.501-5.127,4.683-5.127,4.683c0.028,0.261,0.06,0.525,0.096,0.791c1.793-0.414,5.028-2.691,5.776-4.401
			c0.837-1.914,5.952-2.782,8.943-6.251c0,0,2.213,3.41,5.444,3.769c2.519,0.28,5.123,2.334,6.495,3.149
			C389.07,139.244,386.505,136.923,383.934,136.713z"/>
		<path style="fill:#B44E50;" d="M394.756,143.692c0.109-0.268-0.144-0.552-0.33-0.71c-0.222-0.187-0.458-0.337-0.737-0.423
			c-0.509-0.156-1.119-0.056-1.48,0.359c-0.332,0.382-0.396,0.911-0.374,1.4c0.029,0.617,0.108,1.237,0.206,1.846
			c0.054,0.338,0.568,0.462,0.782,0.206c0.207-0.246,0.69-0.571,0.969-0.22c0.118,0.149,0.045,0.378-0.032,0.526
			c-0.067,0.127-0.163,0.235-0.232,0.361c-0.076,0.139-0.122,0.288-0.157,0.441c-0.048,0.207,0.137,0.426,0.357,0.357
			c0.481-0.15,0.777-0.504,0.939-0.976c0.155-0.453,0.079-0.948-0.232-1.315c-0.409-0.483-1.028-0.54-1.563-0.334
			c-0.025-0.237-0.063-0.473-0.073-0.713c-0.013-0.297-0.05-0.699,0.15-0.934C393.418,143.017,394.433,144.482,394.756,143.692z"/>
		<path style="fill:#B44E50;" d="M391.878,195.911c0,0-0.065,0.236-0.184,0.621c0.909,0.289,6.451,1.212,10.641,4.214
			c0.538-1.131,0.868-1.884,0.868-1.884S397.381,194.794,391.878,195.911z"/>
		<path style="fill:#B44E50;" d="M367.593,229.469c-0.314,0.146-0.537,0.499-0.758,0.757c-0.251,0.292-0.501,0.588-0.772,0.862
			c-0.503,0.508-1.07,0.956-1.683,1.324c-1.211,0.728-2.543,1.249-3.944,1.454c-0.15,0.022-0.116,0.276,0.036,0.266
			c1.465-0.099,2.907-0.514,4.147-1.311c0.602-0.387,1.168-0.832,1.674-1.338c0.301-0.3,0.583-0.617,0.863-0.935
			c0.241-0.274,0.558-0.538,0.693-0.881C367.91,229.509,367.715,229.412,367.593,229.469z"/>
		<path style="fill:#B44E50;" d="M369.213,232.109c-0.564,0.478-1.079,0.999-1.673,1.445c-0.588,0.441-1.218,0.829-1.869,1.172
			c-1.304,0.689-2.724,1.157-4.164,1.468c-0.193,0.042-0.107,0.321,0.08,0.291c1.5-0.238,2.927-0.738,4.281-1.421
			c0.676-0.341,1.325-0.734,1.948-1.164c0.61-0.421,1.256-0.88,1.757-1.43C369.797,232.225,369.462,231.898,369.213,232.109z"/>
		<path style="fill:#B44E50;" d="M369.232,234.392c-0.486,0.157-0.877,0.576-1.293,0.865c-0.449,0.313-0.915,0.602-1.398,0.859
			c-0.483,0.257-0.979,0.487-1.489,0.686c-0.524,0.205-1.078,0.347-1.596,0.562c-0.15,0.062-0.157,0.345,0.043,0.319
			c0.546-0.071,1.102-0.277,1.613-0.478c0.525-0.207,1.039-0.442,1.537-0.706c0.498-0.264,0.983-0.554,1.448-0.871
			c0.43-0.293,1.004-0.618,1.243-1.094C369.377,234.464,369.317,234.365,369.232,234.392z"/>
		<path style="fill:#B44E50;" d="M344.937,210.404c-0.249-0.007-0.42,0.244-0.567,0.419c-0.188,0.224-0.357,0.468-0.523,0.708
			c-0.357,0.516-0.672,1.06-0.951,1.623c-0.266,0.536-0.508,1.087-0.714,1.649c-0.105,0.287-0.201,0.577-0.288,0.87
			c-0.075,0.255-0.233,0.609-0.129,0.867c0.059,0.148,0.223,0.205,0.349,0.092c0.19-0.17,0.214-0.478,0.278-0.716
			c0.08-0.295,0.169-0.587,0.267-0.876c0.196-0.573,0.428-1.132,0.706-1.67c0.264-0.512,0.562-1.008,0.881-1.488
			c0.169-0.255,0.355-0.496,0.531-0.745c0.135-0.19,0.333-0.394,0.283-0.639C345.049,210.442,344.99,210.405,344.937,210.404z"/>
		<path style="fill:#B44E50;" d="M347.117,211.756c-0.25-0.001-0.417,0.2-0.584,0.365c-0.198,0.196-0.38,0.407-0.551,0.628
			c-0.337,0.435-0.62,0.907-0.858,1.403c-0.253,0.527-0.47,1.079-0.629,1.641c-0.085,0.304-0.162,0.61-0.233,0.917
			c-0.069,0.297-0.172,0.614-0.172,0.921c0,0.141,0.205,0.206,0.274,0.074c0.127-0.244,0.18-0.524,0.258-0.786
			c0.08-0.269,0.163-0.537,0.253-0.803c0.191-0.568,0.389-1.136,0.647-1.678c0.221-0.463,0.48-0.909,0.786-1.321
			c0.154-0.207,0.321-0.404,0.501-0.59c0.163-0.169,0.419-0.323,0.465-0.566C347.293,211.859,347.23,211.757,347.117,211.756z"/>
		<path style="fill:#B44E50;" d="M348.451,214.166c-0.232-0.023-0.385,0.164-0.532,0.318c-0.167,0.176-0.314,0.371-0.451,0.571
			c-0.298,0.432-0.538,0.902-0.744,1.383c-0.2,0.467-0.371,0.945-0.526,1.429c-0.144,0.446-0.445,1.058-0.237,1.519
			c0.067,0.149,0.284,0.063,0.288-0.078c0.009-0.272,0.028-0.499,0.112-0.76c0.076-0.234,0.154-0.466,0.234-0.699
			c0.159-0.461,0.325-0.922,0.524-1.368c0.187-0.417,0.402-0.822,0.659-1.199c0.141-0.206,0.297-0.402,0.46-0.592
			c0.125-0.145,0.267-0.264,0.267-0.47C348.505,214.189,348.481,214.169,348.451,214.166z"/>
		<path style="fill:#2E344B;" d="M362.746,176.06c-0.711,0.869-1.022,2.04-1.371,3.089c-0.397,1.192-0.707,2.415-0.969,3.644
			c-0.245,1.15-0.44,2.309-0.572,3.478c-0.119,1.057-0.455,2.472-0.014,3.483c0.038,0.088,0.179,0.078,0.22,0
			c0.235-0.442,0.262-0.943,0.303-1.434c0.051-0.608,0.107-1.215,0.181-1.821c0.149-1.215,0.343-2.428,0.59-3.627
			c0.239-1.158,0.539-2.299,0.859-3.437c0.306-1.089,0.814-2.186,0.896-3.321C362.876,176.051,362.786,176.011,362.746,176.06z"/>
		<path style="fill:#2E344B;" d="M388.66,169.209c1.05-1.063,1.877-2.316,2.453-3.693c0.286-0.682,0.537-1.395,0.639-2.13
			c0.023-0.171,0.054-0.35,0.084-0.532c-0.177-0.035-0.357-0.068-0.537-0.101c-0.036,0.189-0.078,0.377-0.141,0.562
			c-0.229,0.676-0.433,1.353-0.735,2.003c-0.587,1.259-1.386,2.428-2.374,3.407c-0.986,0.977-2.158,1.778-3.421,2.352
			c-0.623,0.283-1.268,0.492-1.927,0.672c-0.343,0.094-0.687,0.18-1.036,0.247c-0.157,0.03-0.299,0.046-0.43,0.088
			c-0.139-0.01-0.285,0.053-0.344,0.221c-1.101,3.151-2.408,6.193-4.02,9.112c-0.593-1.494-1.023-3.035-1.441-4.59
			c-0.235-0.875-0.449-1.755-0.651-2.638c-0.186-0.81-0.29-1.769-0.661-2.515c-0.008-0.015-0.022-0.016-0.03-0.028
			c0.011-0.052,0.012-0.109-0.011-0.175c-0.126-0.378-0.834-0.452-1.162-0.563c-1.806-0.611-3.474-1.617-4.847-2.94
			c-1.298-1.252-2.37-2.799-3.162-4.441c-0.104,0.033-0.206,0.066-0.313,0.102c0.948,3.248,3.444,5.914,6.475,7.411
			c0.402,0.199,0.815,0.373,1.238,0.524c0.374,0.133,0.817,0.315,1.229,0.342c-0.003,0.423,0.116,0.852,0.195,1.265
			c0.091,0.478,0.188,0.953,0.293,1.428c0.195,0.884,0.396,1.769,0.631,2.644c0.476,1.772,1.126,3.508,1.866,5.186
			c0.11,0.249,0.491,0.212,0.612,0c1.765-3.105,3.277-6.401,4.347-9.814c0.467,0.022,1.049-0.142,1.402-0.215
			c0.725-0.15,1.435-0.403,2.114-0.697C386.362,171.109,387.612,170.271,388.66,169.209z"/>
		<path style="fill:#2E344B;" d="M392.867,181.221c-0.013-0.035-0.073-0.056-0.092-0.012c-0.458,1.041-0.377,2.362-0.478,3.482
			c-0.122,1.357-0.297,2.706-0.496,4.054c-0.387,2.607-1.051,5.144-1.558,7.726c-0.063,0.32,0.372,0.437,0.485,0.134
			c0.924-2.485,1.397-5.171,1.79-7.785c0.188-1.251,0.321-2.511,0.422-3.772c0.051-0.635,0.089-1.268,0.101-1.905
			C393.052,182.478,393.104,181.852,392.867,181.221z"/>
		<path style="fill:#2E344B;" d="M385.126,204.072c-0.761,0.26-1.428,0.697-2.134,1.077c-0.792,0.425-1.609,0.807-2.448,1.13
			c-1.629,0.625-3.331,1.067-5.074,1.197c-3.258,0.242-6.726-0.604-9.366-2.564c-0.032-0.023-0.071,0.028-0.042,0.055
			c2.551,2.308,5.905,3.276,9.308,3.09c1.789-0.097,3.57-0.491,5.243-1.13c0.824-0.315,1.629-0.68,2.41-1.09
			c0.804-0.422,1.626-0.856,2.236-1.538C385.341,204.205,385.262,204.026,385.126,204.072z"/>
		<path style="fill:#2E344B;" d="M386.184,201.784c-0.615,0.422-1.22,0.853-1.874,1.215c-0.366,0.202-0.747,0.37-1.117,0.562
			c-0.347,0.18-0.764,0.307-1.056,0.571c-0.017,0.015-0.002,0.037,0.016,0.04c0.351,0.047,0.718-0.088,1.051-0.185
			c0.345-0.101,0.675-0.241,1.004-0.388c0.676-0.304,1.348-0.653,1.951-1.086c0.216-0.155,0.729-0.435,0.699-0.75
			C386.822,201.387,386.337,201.679,386.184,201.784z"/>
		<path style="fill:#2E344B;" d="M379.351,250.422c-0.009-0.556-0.009-1.113-0.009-1.669c0-0.501,0.131-1.171-0.113-1.624
			c-0.11-0.204-0.392-0.177-0.508,0c-0.152,0.233-0.156,0.519-0.169,0.79c-0.015,0.299-0.027,0.599-0.036,0.898
			c-0.018,0.556-0.018,1.112-0.01,1.669c0.016,1.14,0.017,2.3,0.305,3.409c0.085,0.327,0.524,0.227,0.555-0.075
			C379.479,252.691,379.368,251.554,379.351,250.422z"/>
		<g>
			<path style="fill:#2E344B;" d="M373.584,268.251c0.47-2.302,0.977-4.596,1.532-6.879c0.571-2.349,1.292-4.7,1.693-7.083
				c0.014-0.082-0.109-0.154-0.149-0.063c-0.813,1.911-1.309,3.964-1.852,5.965c-0.564,2.076-1.053,4.177-1.507,6.279
				c-0.908,4.208-1.654,8.454-2.23,12.72c-1.143,8.459-1.705,17.066-1.504,25.602c0.109,4.626,0.371,9.282,1.025,13.867
				c-4.496-0.012-8.991-0.026-13.487-0.017c-0.65,0.001-1.301-0.003-1.952-0.005c0.038,0.291,0.075,0.569,0.11,0.837
				c5.146,0.009,10.291-0.005,15.437-0.022c0.984-0.003,1.967-0.005,2.951-0.007c-0.02-0.253-0.041-0.509-0.062-0.781
				c-0.765-0.002-1.529-0.001-2.294-0.003c-0.366-4.073-0.741-8.138-0.892-12.227c-0.157-4.254-0.183-8.529-0.014-12.783
				C370.728,285.129,371.878,276.603,373.584,268.251z"/>
			<path style="fill:#2E344B;" d="M407.787,318.619c-1.064,0.003-2.129,0.006-3.193,0.009c0.042-0.052,0.072-0.118,0.068-0.207
				c-0.229-5.645-0.518-11.284-0.559-16.936c-0.02-2.781-0.001-5.564,0.099-8.343c0.101-2.805,0.373-5.602,0.45-8.407
				c0.15-5.52-0.884-10.962-1.129-16.462c-0.123-2.746,0.004-5.494,0.02-8.242c0.015-2.739-0.079-5.48-0.294-8.211
				c-0.477-6.042-1.404-12.18-3.273-17.958c-0.064-0.199-0.359-0.118-0.313,0.086c1.211,5.368,2.329,10.724,2.843,16.211
				c0.252,2.686,0.396,5.384,0.414,8.081c0.018,2.74-0.127,5.479-0.093,8.219c0.067,5.507,1.155,10.945,1.195,16.452
				c0.02,2.76-0.228,5.515-0.384,8.268c-0.157,2.777-0.259,5.559-0.265,8.341c-0.015,6.301,0.248,12.61,0.618,18.899
				c0.005,0.089,0.042,0.156,0.091,0.209c-3.459,0.01-6.918,0.021-10.376,0.028c-1.337,0.002-2.673,0.006-4.01,0.009
				c0.069,0.275,0.136,0.538,0.201,0.791c4.976,0.009,9.951,0.019,14.927,0.028c0.999,0.002,1.999,0.005,2.998,0.008
				C407.809,319.211,407.798,318.921,407.787,318.619z"/>
		</g>
		<path style="fill:#2E344B;" d="M372.377,147.14c-0.056-0.711-0.351-1.399-0.895-1.679c-0.159-0.082-0.327-0.12-0.504-0.115
			c-0.12-0.022-0.237-0.013-0.352,0.026c-0.176,0.021-0.336,0.083-0.481,0.187c-0.085,0.073-0.169,0.146-0.253,0.219
			c-0.152,0.171-0.252,0.366-0.299,0.586c-0.218,1.019-0.072,3.09,1.444,2.913c0.346-0.041,0.698-0.177,0.922-0.448
			C372.285,148.432,372.427,147.777,372.377,147.14z"/>
		<path style="fill:#2E344B;" d="M382.139,147.388c-0.056-0.711-0.351-1.399-0.895-1.679c-0.159-0.082-0.327-0.12-0.504-0.115
			c-0.12-0.022-0.237-0.013-0.352,0.026c-0.176,0.021-0.336,0.083-0.481,0.187c-0.085,0.073-0.169,0.146-0.253,0.219
			c-0.152,0.171-0.252,0.366-0.299,0.586c-0.218,1.019-0.072,3.09,1.444,2.913c0.346-0.041,0.698-0.176,0.922-0.448
			C382.047,148.68,382.189,148.025,382.139,147.388z"/>
		<path style="fill:#B44E50;" d="M375.886,152.571c-0.14-0.134-0.276-0.256-0.436-0.368c-0.146-0.101-0.302-0.184-0.433-0.306
			c-0.262-0.242-0.419-0.57-0.157-0.87c0.306-0.35,0.542-0.722,0.698-1.162c0.135-0.379,0.296-0.955,0.096-1.331
			c-0.086-0.163-0.326-0.15-0.416,0c-0.125,0.21-0.132,0.487-0.2,0.721c-0.066,0.228-0.16,0.443-0.281,0.647
			c-0.12,0.203-0.258,0.385-0.419,0.557c-0.198,0.212-0.366,0.428-0.396,0.726c-0.049,0.472,0.2,0.934,0.553,1.233
			c0.173,0.147,0.366,0.282,0.574,0.375c0.219,0.098,0.429,0.126,0.666,0.139C375.92,152.945,376.015,152.695,375.886,152.571z"/>
		<path style="fill:#FFFFFF;" d="M380.53,145.982c-0.033-0.115-0.091-0.216-0.176-0.301l-0.138-0.107
			c-0.106-0.062-0.221-0.093-0.344-0.093c-0.094-0.004-0.182,0.016-0.263,0.059c-0.085,0.027-0.158,0.075-0.22,0.141
			c-0.066,0.062-0.113,0.135-0.141,0.22c-0.043,0.081-0.062,0.169-0.059,0.263c0.008,0.061,0.016,0.121,0.024,0.181
			c0.032,0.116,0.091,0.216,0.175,0.301l0.138,0.107c0.106,0.062,0.221,0.093,0.344,0.093c0.094,0.004,0.182-0.016,0.263-0.059
			c0.085-0.028,0.158-0.075,0.219-0.141c0.067-0.062,0.114-0.135,0.141-0.219c0.043-0.081,0.062-0.169,0.059-0.263
			C380.546,146.102,380.538,146.042,380.53,145.982z"/>
		<path style="fill:#C85F64;" d="M370.11,150.155c0,0.731-0.908,1.324-2.027,1.324c-1.119,0-2.027-0.593-2.027-1.324
			c0-0.731,0.908-1.324,2.027-1.324C369.203,148.831,370.11,149.424,370.11,150.155z"/>
		<path style="fill:#C85F64;" d="M385.994,150.444c0,0.731-0.907,1.324-2.027,1.324c-1.119,0-2.027-0.593-2.027-1.324
			c0-0.731,0.907-1.324,2.027-1.324C385.087,149.12,385.994,149.713,385.994,150.444z"/>
		<path style="fill:#C85F64;" d="M382.554,144.789c-0.071-0.071-0.194-0.113-0.292-0.077c-0.023,0.008-0.045,0.017-0.068,0.027
			c-0.027,0.008-0.05,0.021-0.07,0.041c-0.013,0.01-0.026,0.02-0.039,0.031c-0.004,0.004-0.008,0.009-0.013,0.014
			c-0.019,0.02-0.039,0.04-0.058,0.061l-0.115,0.122c-0.034,0.036-0.065,0.075-0.086,0.12c-0.012,0.025-0.023,0.049-0.035,0.074
			c-0.006,0.012-0.012,0.025-0.017,0.037c-0.003,0.007-0.007,0.014-0.01,0.021c-0.005,0.011-0.01,0.022-0.014,0.034
			c-0.011,0.019-0.017,0.04-0.017,0.063c-0.008,0.057,0.003,0.113,0.031,0.164c0.017,0.031,0.046,0.065,0.077,0.08
			c0.012,0.006,0.024,0.011,0.037,0.016c0.063,0.027,0.132,0.027,0.195,0c0.034-0.014,0.066-0.03,0.098-0.046
			c0.023-0.011,0.046-0.023,0.068-0.034c0.046-0.023,0.085-0.056,0.122-0.092c0.037-0.037,0.075-0.074,0.112-0.111
			c0.02-0.02,0.04-0.039,0.06-0.059c0.004-0.004,0.009-0.009,0.013-0.013c0.017-0.021,0.033-0.043,0.05-0.064l0.006-0.007
			c0.019-0.033,0.03-0.071,0.042-0.107C382.665,144.981,382.627,144.861,382.554,144.789z"/>
		<path style="fill:#C85F64;" d="M383.06,145.968c-0.006-0.015-0.013-0.03-0.019-0.045c-0.012-0.022-0.028-0.04-0.049-0.053
			c-0.012-0.012-0.026-0.02-0.041-0.024c-0.023-0.012-0.047-0.017-0.073-0.016l-0.091-0.011c-0.015-0.002-0.03-0.004-0.046-0.006
			c-0.032-0.004-0.064,0.002-0.095,0.008c-0.029,0.005-0.059,0.009-0.087,0.017c-0.039,0.011-0.075,0.035-0.11,0.055
			c-0.095,0.053-0.095,0.2,0,0.253c0.034,0.019,0.069,0.04,0.106,0.053c0.029,0.01,0.061,0.013,0.091,0.018
			c0.03,0.006,0.06,0.012,0.091,0.008c0.015-0.002,0.03-0.004,0.046-0.006l0.095-0.012c0.017-0.002,0.033-0.005,0.05-0.007
			c0.025-0.006,0.046-0.017,0.064-0.034c0.031-0.024,0.059-0.059,0.068-0.098c0.004-0.016,0.008-0.035,0.008-0.05
			C383.067,146.001,383.064,145.984,383.06,145.968z"/>
		<path style="fill:#FFFFFF;" d="M370.437,145.754c-0.033-0.116-0.091-0.216-0.176-0.301l-0.138-0.107
			c-0.106-0.062-0.221-0.093-0.344-0.093c-0.094-0.004-0.182,0.016-0.263,0.059c-0.085,0.027-0.158,0.074-0.22,0.141
			c-0.066,0.062-0.113,0.135-0.141,0.22c-0.043,0.081-0.062,0.169-0.059,0.263c0.008,0.061,0.016,0.121,0.024,0.181
			c0.032,0.116,0.091,0.216,0.175,0.301l0.138,0.107c0.106,0.062,0.221,0.093,0.344,0.093c0.094,0.004,0.182-0.016,0.263-0.059
			c0.085-0.027,0.158-0.074,0.219-0.141c0.067-0.062,0.114-0.135,0.141-0.219c0.043-0.081,0.062-0.169,0.059-0.263
			C370.453,145.875,370.445,145.815,370.437,145.754z"/>
		<path style="fill:#C85F64;" d="M368.918,144.843c-0.009-0.018-0.021-0.035-0.036-0.048c-0.027-0.026-0.058-0.044-0.094-0.055
			l0.03,0.013c-0.028-0.012-0.053-0.029-0.078-0.046c-0.007-0.006-0.013-0.011-0.02-0.018c-0.019-0.019-0.039-0.039-0.063-0.052
			c-0.009-0.004-0.017-0.009-0.025-0.013c-0.029-0.017-0.051-0.039-0.085-0.047c-0.024-0.005-0.048-0.005-0.072-0.008
			c0.004,0.001,0.007,0.001,0.011,0.001c-0.038-0.005-0.073,0.006-0.101,0.033c-0.003,0.003-0.006,0.006-0.009,0.009
			c-0.012,0.014-0.023,0.028-0.033,0.043c-0.011,0.015-0.017,0.027-0.022,0.049c-0.004,0.018-0.008,0.04-0.006,0.058
			c0.003,0.036,0.008,0.072,0.018,0.107c0.001,0.005,0.003,0.009,0.004,0.014c0.013,0.039,0.03,0.07,0.058,0.102
			c0.007,0.008,0.015,0.016,0.023,0.024c0.043,0.042,0.092,0.08,0.145,0.108c0.009,0.005,0.018,0.009,0.028,0.013
			c0.042,0.019,0.087,0.042,0.135,0.04c0.06-0.003,0.12-0.024,0.161-0.069c0.034-0.038,0.066-0.087,0.061-0.141
			C368.944,144.919,368.94,144.882,368.918,144.843z"/>
		<path style="fill:#C85F64;" d="M368.47,145.896c-0.031-0.02-0.064-0.041-0.101-0.049c-0.039-0.009-0.079-0.011-0.119-0.015
			c-0.046-0.005-0.092-0.007-0.138-0.008c-0.126-0.001-0.26,0.009-0.373,0.072c-0.084,0.048-0.135,0.162-0.104,0.256
			c0.032,0.099,0.115,0.161,0.219,0.167c0.02,0.001,0.04-0.003,0.06-0.004c0.04-0.003,0.08-0.006,0.119-0.014
			c0.031-0.007,0.062-0.011,0.092-0.016c0.038-0.004,0.076-0.008,0.114-0.01c0.024-0.001,0.048,0,0.072-0.001
			c0.042-0.001,0.075-0.012,0.112-0.025c0.074-0.026,0.127-0.08,0.138-0.16C368.572,146.01,368.536,145.939,368.47,145.896z"/>
		<g>
			<path style="fill:#5F2A3D;" d="M370.97,141.576c0.084-0.105,0.144-0.202,0.163-0.34c0.017-0.124,0.003-0.271-0.07-0.378
				c-0.048-0.07-0.1-0.148-0.157-0.206c-0.119-0.121-0.259-0.176-0.416-0.234c-0.212-0.078-0.47-0.037-0.684,0.003
				c-0.292,0.055-0.576,0.167-0.836,0.31c-0.247,0.137-0.507,0.314-0.693,0.527c-0.24,0.275-0.502,0.669-0.498,1.044
				c0.006,0.528,0.57,0.83,1.023,0.587c0.204-0.109,0.35-0.315,0.532-0.457c-0.053,0.041-0.106,0.082-0.158,0.122
				c0.082-0.063,0.163-0.128,0.244-0.192c0.142-0.106,0.297-0.19,0.457-0.265c0.134-0.05,0.267-0.099,0.408-0.129
				c0.142-0.03,0.275-0.077,0.403-0.147c0.104-0.057,0.196-0.131,0.268-0.225c0,0.001,0.006-0.008,0.007-0.01
				C370.954,141.596,370.952,141.598,370.97,141.576z"/>
			<path style="fill:#5F2A3D;" d="M370.962,141.587c0.021-0.024,0.091-0.11,0.065-0.085
				C371.008,141.519,370.971,141.573,370.962,141.587z"/>
		</g>
		<g>
			<path style="fill:#5F2A3D;" d="M382.512,142.554C382.512,142.554,382.512,142.554,382.512,142.554
				C382.467,142.573,382.456,142.577,382.512,142.554z"/>
			<path style="fill:#5F2A3D;" d="M379.661,141.43c-0.003-0.002-0.004-0.004-0.006-0.006c-0.011-0.008-0.02-0.013-0.031-0.022
				C379.627,141.404,379.644,141.417,379.661,141.43z"/>
			<path style="fill:#5F2A3D;" d="M382.698,141.431c-0.296-0.487-0.825-0.799-1.357-0.964c-0.262-0.081-0.541-0.13-0.816-0.129
				c-0.348,0.002-0.705,0.039-0.962,0.298c-0.245,0.248-0.16,0.594,0.091,0.788c0.074,0.056,0.135,0.095,0.227,0.128
				c0.046,0.016,0.092,0.029,0.14,0.039c0.103,0.023,0.205,0.044,0.305,0.075c0.09,0.028,0.178,0.062,0.267,0.094
				c0.048,0.017,0.094,0.038,0.142,0.054c-0.221-0.075-0.048-0.019,0.012,0.012c0.183,0.092,0.363,0.205,0.531,0.322
				c0.007,0.005,0.013,0.011,0.02,0.017c-0.01-0.01-0.013-0.012-0.027-0.025c0.073,0.071,0.162,0.134,0.246,0.191
				c0.081,0.054,0.16,0.114,0.248,0.154c0.084,0.039,0.168,0.084,0.255,0.112c0.059,0.019,0.138,0.032,0.2,0.032
				c0.11,0,0.192-0.039,0.29-0.075c0.013-0.006,0.02-0.009,0.043-0.018l-0.041,0.017c-0.001,0,0,0-0.001,0.001
				c0.012-0.004,0.021-0.008,0.033-0.012c0.005-0.002,0.01-0.006,0.015-0.008c0.003-0.001,0.002-0.001,0.005-0.002
				c0.031-0.02,0.066-0.048,0.092-0.073C382.945,142.19,382.886,141.74,382.698,141.431z"/>
			<path style="fill:#5F2A3D;" d="M381.3,142.165C381.402,142.262,381.354,142.208,381.3,142.165L381.3,142.165z"/>
			<path style="fill:#5F2A3D;" d="M379.661,141.43c0.002,0.002,0.004,0.005,0.006,0.006
				C379.713,141.47,379.688,141.451,379.661,141.43z"/>
		</g>
		<g>
			<path style="fill:#B44E50;" d="M376.819,154.332c-0.387-0.231-0.908-0.315-1.351-0.279c-0.538,0.045-1.042,0.22-1.447,0.584
				c-0.274,0.247,0.077,0.677,0.387,0.501c0.337-0.191,0.714-0.31,1.101-0.312c0.103-0.001,0.205,0.007,0.308,0.018
				c0.009,0.001,0.093,0.009,0.049,0.004c-0.039-0.005,0.028,0.004,0.029,0.005c0.061,0.011,0.121,0.022,0.181,0.037
				c0.241,0.059,0.4,0.146,0.592,0.214c0.121,0.043,0.267,0.094,0.391,0.04c0.019-0.008,0.068-0.047,0.086-0.06
				c0.033-0.031,0.056-0.052,0.076-0.097C377.339,154.71,377.029,154.458,376.819,154.332z"/>
			<path style="fill:#B44E50;" d="M377.144,155.083c-0.005,0.005-0.006,0.01-0.012,0.015
				C377.158,155.075,377.155,155.076,377.144,155.083z"/>
		</g>
		<path style="fill:#FFFFFF;" d="M307.906,158.464c-0.202-1.505-1.64-3.103-3.306-2.919c-1.316,0.145-2.402,0.498-3.571,1.134
			c-0.571,0.311-1.128,0.65-1.669,1.009c-1.345,0.892-2.642,1.901-3.79,3.037c-1.114,1.102-2.159,2.343-2.853,3.752
			c-0.393,0.798-0.721,1.627-0.953,2.486c-0.197,0.726-0.248,1.437-0.05,2.174c0.308,1.144,1.364,2.275,2.659,2.176
			c0.884-0.068,1.622-0.383,2.263-0.995c0.363-0.347,0.604-0.774,0.876-1.187c0.307-0.465,0.644-0.914,0.981-1.358
			c0.336-0.424,0.673-0.846,1.002-1.276c-0.178,0.231-0.357,0.462-0.535,0.693c0.891-1.139,1.923-2.147,3.048-3.052
			c0.91-0.674,1.878-1.306,2.892-1.813c0.195-0.064,0.387-0.135,0.595-0.167c0.746-0.114,1.67-0.9,2.012-1.547
			C307.865,159.93,308.008,159.23,307.906,158.464z"/>
		<path style="fill:#FFFFFF;" d="M318.962,156.753c-0.001-0.263-0.067-0.508-0.199-0.735c-0.069-0.247-0.194-0.461-0.375-0.643
			c-0.07-0.134-0.163-0.247-0.279-0.337c-0.198-0.153-0.396-0.306-0.594-0.459c-0.039-0.027-0.078-0.054-0.118-0.08
			c-0.287-0.186-0.612-0.315-0.942-0.404c-0.21-0.057-0.422-0.104-0.635-0.141c-0.436-0.077-0.877-0.135-1.318-0.179
			c-0.215-0.021-0.431-0.04-0.647-0.016c-0.426,0.048-0.858,0.103-1.278,0.194c-0.103,0.023-0.206,0.048-0.308,0.075
			c-0.163,0.044-0.29,0.103-0.456,0.173c-0.322,0.136-0.663,0.326-0.898,0.595c-0.442,0.505-0.801,1.158-0.769,1.857
			c0.029,0.65,0.236,1.434,0.769,1.857c0.382,0.303,0.718,0.604,1.218,0.717c0.081,0.018,0.166,0.027,0.249,0.039
			c0.215,0.034,0.429,0.071,0.64,0.125c0.243,0.062,0.491,0.092,0.736,0.144c0.247,0.052,0.491,0.117,0.732,0.195
			c0.115,0.037,0.229,0.077,0.341,0.12c0.124,0.048,0.258,0.066,0.389,0.089c-0.013-0.002-0.026-0.003-0.039-0.005
			c0.018,0.003,0.037,0.006,0.055,0.009c0.112,0.019,0.221,0.043,0.334,0.054c0.156,0.026,0.313,0.048,0.463,0.052
			c0.153,0.013,0.304-0.003,0.454-0.048c0.263-0.001,0.508-0.067,0.735-0.199c0.247-0.069,0.461-0.194,0.643-0.374
			c0.113-0.067,0.214-0.146,0.305-0.238c0.016-0.016,0.033-0.031,0.048-0.047c0.498-0.521,0.787-1.226,0.795-1.947
			C319.016,157.043,318.987,156.938,318.962,156.753z"/>
		<path style="fill:#FFFFFF;" d="M327.637,197.056c-0.098-0.414-0.288-0.774-0.569-1.081c-0.581-0.752-1.508-1.309-2.497-1.253
			c-0.099,0.006-0.199,0.008-0.298,0.012c-0.715,0.028-1.305,0.204-1.923,0.536c-0.233,0.125-0.442,0.254-0.658,0.406
			c-0.198,0.139-0.402,0.27-0.61,0.393c-0.255,0.151-0.491,0.329-0.723,0.512c-0.828,0.599-1.844,1.026-2.327,1.974
			c-0.232,0.455-0.333,0.909-0.264,1.42c0.069,0.515,0.277,0.877,0.613,1.279c0.704,0.844,1.732,0.949,2.74,1.048
			c0.446,0.044,0.897,0.059,1.344,0.034c0.748-0.043,1.421-0.241,2.106-0.518c0.539-0.218,0.923-0.373,1.355-0.7
			c0.531-0.402,1.015-0.747,1.296-1.378c0.146-0.327,0.284-0.659,0.416-0.992C327.788,198.183,327.788,197.62,327.637,197.056z"/>
	</g>
	<g>
		<polygon style="fill:#8EADD5;" points="376.763,442.928 365.995,442.928 343.742,352.241 354.51,352.241 		"/>
		<polygon style="fill:#8EADD5;" points="442.565,442.928 431.798,442.928 409.545,352.241 420.312,352.241 		"/>
		<polygon style="fill:#B9CFE6;" points="373.772,442.928 363.004,442.928 340.751,352.241 351.519,352.241 		"/>
		<polygon style="fill:#8EADD5;" points="316.345,442.928 327.112,442.928 349.365,352.241 338.598,352.241 		"/>
		<polygon style="fill:#B9CFE6;" points="439.814,442.928 429.046,442.928 406.793,352.241 417.56,352.241 		"/>
		
			<rect x="355.108" y="375.451" transform="matrix(-1 -1.224647e-16 1.224647e-16 -1 773.8649 760.2345)" style="fill:#B9CFE6;" width="63.649" height="9.332"/>
		
			<rect x="365.158" y="408.711" transform="matrix(-1 -1.224647e-16 1.224647e-16 -1 793.9645 826.7546)" style="fill:#B9CFE6;" width="63.649" height="9.332"/>
		<polygon style="fill:#FFFFFF;" points="312.197,442.928 322.965,442.928 345.218,352.241 334.45,352.241 		"/>
		<polygon style="fill:#8EADD5;" points="382.227,442.928 392.994,442.928 415.247,352.241 404.48,352.241 		"/>
		<polygon style="fill:#FFFFFF;" points="378.239,442.928 389.006,442.928 411.259,352.241 400.492,352.241 		"/>
		<rect x="333.254" y="375.451" style="fill:#FFFFFF;" width="63.649" height="9.332"/>
		<rect x="323.204" y="408.711" style="fill:#FFFFFF;" width="63.649" height="9.332"/>
		<path style="fill:#FFFFFF;" d="M419.317,354.634h-87.421c-2.113,0-3.827-1.713-3.827-3.827v-0.163
			c0-2.113,1.713-3.827,3.827-3.827h87.421c2.113,0,3.827,1.713,3.827,3.827v0.163C423.144,352.921,421.43,354.634,419.317,354.634z
			"/>
	</g>
	<g>
		<path style="fill:#D3723F;" d="M94.079,273.173h71.304c2.375,0,4.622,0.933,6.112,2.538l10.066,10.844
			c0.993,1.07,2.492,1.692,4.075,1.692h111.309c3.943,0,7.139,2.773,7.139,6.195v135.122c0,7.38-6.895,13.364-15.401,13.364H97.596
			c-5.956,0-10.785-4.19-10.785-9.358V279.48C86.812,275.997,90.065,273.173,94.079,273.173z"/>
		<g>
			<polygon style="fill:#FFFFFF;" points="146.356,192.474 116.357,222.473 116.357,337.429 263.412,337.429 263.412,192.474 			"/>
			<polygon style="fill:#B9CFE6;" points="146.356,222.473 146.356,192.474 116.357,222.473 			"/>
		</g>
		<path style="fill:#EBAB6F;" d="M69.064,307.042h197.577c4.657,0,8.653,2.877,9.513,6.848l25.777,119.089
			c1.119,5.169-3.451,9.949-9.513,9.949H94.842c-4.657,0-8.653-2.877-9.513-6.848L59.552,316.991
			C58.433,311.821,63.003,307.042,69.064,307.042z"/>
		<g>
			<path style="fill:#C85F64;" d="M195.885,254.036c3.759-3.81,7.511-7.628,11.265-11.446c2.211-2.248,2.41-6.302,0-8.514
				c-2.386-2.191-6.155-2.399-8.514,0c-3.808,3.744-7.615,7.487-11.416,11.236c-3.762-3.763-7.538-7.511-11.359-11.216
				c-2.221-2.291-6.41-2.398-8.611,0c-2.26,2.462-2.37,6.167,0,8.611c3.695,3.811,7.434,7.577,11.187,11.329
				c-3.751,3.75-7.487,7.514-11.181,11.324c-2.291,2.221-2.398,6.41,0,8.611c2.462,2.26,6.167,2.37,8.611,0
				c3.819-3.703,7.594-7.45,11.353-11.211c3.799,3.747,7.604,7.488,11.41,11.231c2.248,2.211,6.302,2.41,8.514,0
				c2.191-2.386,2.399-6.155,0-8.514C203.393,261.661,199.643,257.845,195.885,254.036z"/>
		</g>
	</g>
	<path style="fill:#C9B5A9;" d="M74.567,202.223h-1.288c-0.2-0.617-0.448-1.212-0.74-1.782l0.912-0.912
		c0.863-0.863,0.863-2.261,0-3.124l-2.175-2.176c-0.863-0.862-2.261-0.862-3.123,0l-0.912,0.912c-0.57-0.291-1.165-0.54-1.782-0.74
		v-1.288c0-1.22-0.989-2.209-2.209-2.209h-3.077c-1.22,0-2.209,0.989-2.209,2.209v1.288c-0.617,0.2-1.212,0.448-1.782,0.74
		l-0.912-0.912c-0.862-0.862-2.261-0.862-3.123,0l-2.176,2.176c-0.862,0.863-0.862,2.261,0,3.124l0.912,0.912
		c-0.292,0.57-0.54,1.164-0.74,1.782h-1.288c-1.22,0-2.209,0.989-2.209,2.209v3.077c0,1.22,0.989,2.209,2.209,2.209h1.288
		c0.2,0.617,0.448,1.212,0.74,1.782l-0.912,0.912c-0.862,0.863-0.862,2.261,0,3.123l2.176,2.176c0.862,0.862,2.261,0.862,3.123,0
		l0.912-0.912c0.57,0.291,1.165,0.54,1.782,0.74v1.288c0,1.22,0.989,2.209,2.209,2.209h3.077c1.22,0,2.209-0.989,2.209-2.209v-1.288
		c0.617-0.2,1.212-0.448,1.782-0.74l0.912,0.912c0.863,0.862,2.261,0.862,3.123,0l2.175-2.176c0.863-0.863,0.863-2.261,0-3.123
		l-0.912-0.912c0.291-0.57,0.54-1.164,0.74-1.782h1.288c1.22,0,2.209-0.989,2.209-2.209v-3.077
		C76.775,203.212,75.786,202.223,74.567,202.223z M61.711,213.699c-4.268,0-7.729-3.46-7.729-7.729c0-4.268,3.46-7.729,7.729-7.729
		c4.269,0,7.729,3.46,7.729,7.729C69.44,210.239,65.979,213.699,61.711,213.699z"/>
	<path style="fill:#C9B5A9;" d="M324.967,254.441h-1.288c-0.2-0.617-0.448-1.212-0.74-1.782l0.912-0.912
		c0.862-0.863,0.862-2.261,0-3.124l-2.176-2.175c-0.863-0.863-2.261-0.863-3.124,0l-0.912,0.912c-0.57-0.292-1.164-0.54-1.782-0.74
		v-1.288c0-1.22-0.989-2.209-2.209-2.209h-3.077c-1.22,0-2.209,0.989-2.209,2.209v1.288c-0.617,0.2-1.212,0.448-1.782,0.74
		l-0.912-0.912c-0.862-0.863-2.261-0.863-3.123,0l-2.176,2.175c-0.863,0.863-0.863,2.261,0,3.124l0.912,0.912
		c-0.292,0.57-0.54,1.165-0.74,1.782h-1.288c-1.22,0-2.209,0.989-2.209,2.209v3.077c0,1.22,0.989,2.209,2.209,2.209h1.288
		c0.2,0.617,0.448,1.212,0.74,1.782l-0.912,0.912c-0.863,0.863-0.863,2.261,0,3.124l2.176,2.176c0.862,0.862,2.261,0.862,3.123,0
		l0.912-0.912c0.57,0.292,1.165,0.54,1.782,0.74v1.288c0,1.22,0.989,2.209,2.209,2.209h3.077c1.22,0,2.209-0.989,2.209-2.209v-1.288
		c0.617-0.2,1.212-0.448,1.782-0.74l0.912,0.912c0.863,0.862,2.261,0.862,3.124,0l2.176-2.176c0.862-0.863,0.862-2.261,0-3.124
		l-0.912-0.912c0.291-0.57,0.54-1.164,0.74-1.782h1.288c1.22,0,2.209-0.989,2.209-2.209v-3.077
		C327.175,255.429,326.187,254.441,324.967,254.441z M312.111,265.916c-4.268,0-7.729-3.46-7.729-7.729s3.46-7.729,7.729-7.729
		s7.729,3.46,7.729,7.729S316.379,265.916,312.111,265.916z"/>
	<path style="fill:#C9B5A9;" d="M109.283,179.377l-1.697-0.643c0.045-0.913,0.014-1.821-0.085-2.717l1.657-0.747
		c1.567-0.706,2.265-2.548,1.559-4.115l-1.781-3.952c-0.706-1.567-2.548-2.265-4.115-1.559l-1.657,0.747
		c-0.605-0.668-1.265-1.292-1.978-1.864l0.643-1.697c0.609-1.607-0.201-3.404-1.808-4.012l-4.054-1.535
		c-1.607-0.609-3.403,0.201-4.012,1.808l-0.643,1.697c-0.913-0.045-1.821-0.014-2.717,0.085l-0.747-1.657
		c-0.706-1.567-2.549-2.265-4.115-1.559l-3.952,1.781c-1.567,0.706-2.265,2.548-1.559,4.115l0.747,1.657
		c-0.668,0.605-1.293,1.265-1.864,1.978l-1.697-0.643c-1.607-0.609-3.403,0.201-4.012,1.808l-1.535,4.054
		c-0.609,1.607,0.201,3.404,1.808,4.012l1.697,0.643c-0.045,0.913-0.014,1.821,0.085,2.717l-1.657,0.747
		c-1.567,0.706-2.265,2.548-1.559,4.115l1.781,3.952c0.706,1.567,2.548,2.265,4.115,1.559l1.657-0.747
		c0.605,0.668,1.265,1.293,1.978,1.864l-0.643,1.697c-0.609,1.607,0.201,3.403,1.808,4.012l4.054,1.535
		c1.607,0.609,3.403-0.201,4.012-1.808l0.643-1.697c0.913,0.045,1.821,0.014,2.717-0.085l0.747,1.657
		c0.706,1.567,2.548,2.265,4.115,1.559l3.952-1.781c1.567-0.706,2.265-2.548,1.559-4.115l-0.747-1.657
		c0.668-0.605,1.293-1.265,1.864-1.978l1.697,0.643c1.607,0.609,3.403-0.201,4.012-1.808l1.535-4.054
		C111.699,181.782,110.89,179.985,109.283,179.377z M86.618,188.081c-5.624-2.13-8.456-8.416-6.326-14.04
		c2.13-5.624,8.416-8.456,14.04-6.326c5.624,2.13,8.456,8.416,6.326,14.04C98.528,187.378,92.242,190.211,86.618,188.081z"/>
	<g>
		<g>
			<polygon style="fill:#FFFFFF;" points="128.028,104.325 119.917,121.526 137.332,170.024 182.912,153.657 160.953,92.503 			"/>
			<polygon style="fill:#F4E8D8;" points="132.573,116.981 128.028,104.325 119.917,121.526 			"/>
		</g>
		<g>
			<path style="fill:#C85F64;" d="M153.765,129.606c1.126-2.431,2.248-4.864,3.37-7.297c0.661-1.433,0.069-3.376-1.44-4.01
				c-1.494-0.628-3.305-0.089-4.01,1.44c-1.16,2.408-2.321,4.815-3.477,7.224c-2.408-1.136-4.821-2.263-7.248-3.362
				c-1.434-0.703-3.425-0.045-4.056,1.457c-0.648,1.542-0.073,3.306,1.457,4.056c2.385,1.17,4.783,2.312,7.186,3.444
				c-1.133,2.401-2.256,4.806-3.351,7.225c-0.704,1.434-0.045,3.425,1.456,4.056c1.542,0.648,3.306,0.073,4.056-1.456
				c1.173-2.391,2.317-4.794,3.452-7.201c2.423,1.123,4.849,2.241,7.275,3.36c1.433,0.661,3.376,0.069,4.01-1.44
				c0.628-1.495,0.089-3.305-1.44-4.01C158.591,131.928,156.179,130.765,153.765,129.606z"/>
		</g>
	</g>
	<g>
		<g>
			<polygon style="fill:#FFFFFF;" points="223.339,71.943 208.156,78.142 190.941,119.11 229.445,135.289 251.152,83.63 			"/>
			<polygon style="fill:#F4E8D8;" points="218.847,82.634 223.339,71.943 208.156,78.142 			"/>
		</g>
		<g>
			<path style="fill:#C85F64;" d="M224.95,103.013c2.133-0.888,4.264-1.779,6.396-2.671c1.255-0.525,2.013-2.105,1.424-3.388
				c-0.583-1.271-2.048-1.984-3.388-1.424c-2.141,0.853-4.282,1.706-6.421,2.562c-0.868-2.126-1.743-4.249-2.644-6.362
				c-0.501-1.283-2.15-2.026-3.427-1.44c-1.311,0.602-1.974,2.058-1.44,3.427c0.833,2.134,1.691,4.258,2.557,6.378
				c-2.12,0.865-4.236,1.738-6.343,2.636c-1.283,0.501-2.026,2.15-1.44,3.426c0.602,1.311,2.058,1.974,3.426,1.44
				c2.139-0.835,4.267-1.695,6.392-2.563c0.885,2.126,1.774,4.251,2.662,6.377c0.525,1.255,2.105,2.013,3.388,1.424
				c1.271-0.583,1.984-2.048,1.424-3.388C226.662,107.302,225.808,105.156,224.95,103.013z"/>
		</g>
	</g>
</g>
<g id="TEXT">
	
		<text transform="matrix(0.9707 -0.2403 0.2403 0.9707 367.7045 106.3843)" style="fill:#FFFFFF; font-family:'Quicksand-Bold'; font-size:36.7059px;">?</text>
	
		<text transform="matrix(0.756 -0.6546 0.6546 0.756 356.6145 119.1745)" style="fill:#FFFFFF; font-family:'Quicksand-Bold'; font-size:32.3702px;">?</text>
	
		<text transform="matrix(0.909 0.4168 -0.4168 0.909 383.857 104.7404)" style="fill:#FFFFFF; font-family:'Quicksand-Bold'; font-size:32.3702px;">?</text>
</g>
</svg>
