<svg xmlns="http://www.w3.org/2000/svg" version="1.1" xmlns:xlink="http://www.w3.org/1999/xlink" xmlns:svgjs="http://svgjs.dev/svgjs" viewBox="0 0 800 800" id="qqquad" style="
    opacity: 0.3;
"><g shape-rendering="crispEdges" stroke-linejoin="round" fill="none" stroke-width="1.5" stroke="hsl(0, 0%, 100%)"><polygon points="600,0 800,0 800,200"></polygon><polygon points="600,100 500,0 600,0"></polygon><polygon points="500,0 400,0 500,100"></polygon><polygon points="400,100 400,200 500,100"></polygon><polygon points="600,100 600,200 500,100"></polygon><polygon points="600,300 500,200 500,300"></polygon><polygon points="500,250 450,200 500,200"></polygon><polygon points="400,250 450,250 400,200"></polygon><polygon points="450,300 400,300 400,250"></polygon><polygon points="500,300 500,250 450,250"></polygon><polygon points="450,300 450,350 500,300"></polygon><polygon points="450,300 400,300 400,350"></polygon><polygon points="450,400 450,350 400,400"></polygon><polygon points="450,350 450,400 500,350"></polygon><polygon points="600,400 500,400 600,300"></polygon><polygon points="800,200 800,300 700,300"></polygon><polygon points="600,200 700,200 600,300"></polygon><polygon points="700,400 700,300 600,300"></polygon><polygon points="800,400 800,300 700,400"></polygon><polygon points="300,0 300,100 400,0"></polygon><polygon points="300,100 200,100 300,0"></polygon><polygon points="300,100 300,200 200,100"></polygon><polygon points="400,100 400,150 350,100"></polygon><polygon points="300,150 350,100 350,150"></polygon><polygon points="350,150 300,200 300,150"></polygon><polygon points="400,150 350,200 400,200"></polygon><polygon points="200,100 200,0 100,0"></polygon><polygon points="100,100 100,0 0,0"></polygon><polygon points="0,200 100,200 0,100"></polygon><polygon points="200,100 200,200 100,200"></polygon><polygon points="100,300 200,300 200,200"></polygon><polygon points="100,300 100,200 0,200"></polygon><polygon points="100,400 0,400 100,300"></polygon><polygon points="100,300 200,400 200,300"></polygon><polygon points="400,200 300,300 300,200"></polygon><polygon points="200,200 300,200 200,300"></polygon><polygon points="300,400 300,300 200,300"></polygon><polygon points="300,300 400,400 300,400"></polygon><polygon points="400,450 400,400 350,400"></polygon><polygon points="350,450 350,400 300,400"></polygon><polygon points="350,500 350,450 300,500"></polygon><polygon points="400,450 400,500 350,450"></polygon><polygon points="300,500 300,400 200,400"></polygon><polygon points="250,550 300,500 300,550"></polygon><polygon points="250,550 200,500 200,550"></polygon><polygon points="250,600 200,600 200,550"></polygon><polygon points="300,600 250,550 300,550"></polygon><polygon points="400,600 300,600 300,500"></polygon><polygon points="200,500 100,500 200,400"></polygon><polygon points="100,500 0,500 100,400"></polygon><polygon points="0,500 100,600 0,600"></polygon><polygon points="100,600 200,600 200,500"></polygon><polygon points="200,800 0,600 0,800"></polygon><polygon points="400,600 400,700 300,600"></polygon><polygon points="300,600 200,700 200,600"></polygon><polygon points="300,700 200,800 300,800"></polygon><polygon points="300,800 400,800 300,700"></polygon><polygon points="800,500 800,400 700,500"></polygon><polygon points="700,500 600,400 600,500"></polygon><polygon points="600,500 700,600 700,500"></polygon><polygon points="800,500 800,600 700,600"></polygon><polygon points="600,400 500,400 600,500"></polygon><polygon points="500,400 450,450 500,450"></polygon><polygon points="400,450 450,400 450,450"></polygon><polygon points="400,500 450,450 400,450"></polygon><polygon points="450,500 450,450 500,500"></polygon><polygon points="500,500 500,600 400,500"></polygon><polygon points="500,600 600,500 500,500"></polygon><polygon points="500,700 500,600 600,700"></polygon><polygon points="500,700 500,600 400,700"></polygon><polygon points="500,700 500,800 400,700"></polygon><polygon points="500,800 600,700 500,700"></polygon><polygon points="800,600 600,800 600,600"></polygon></g><g fill="hsl(220, 62%, 45%)" stroke-width="3" stroke="hsl(220, 43%, 13%)"></g></svg>