<svg xmlns="http://www.w3.org/2000/svg" version="1.1" xmlns:xlink="http://www.w3.org/1999/xlink" xmlns:svgjs="http://svgjs.dev/svgjs" viewBox="0 0 800 800" id="qqquad"><g shape-rendering="crispEdges" stroke-linejoin="round" fill="none" stroke-width="2" stroke="hsl(274, 65%, 61%)"><polygon points="600,0 800,0 600,200"></polygon><polygon points="600,0 500,100 600,100"></polygon><polygon points="400,0 500,0 500,100"></polygon><polygon points="500,100 500,200 400,200"></polygon><polygon points="600,200 500,200 600,100"></polygon><polygon points="600,250 600,200 550,250"></polygon><polygon points="550,200 550,250 500,200"></polygon><polygon points="550,300 550,250 500,250"></polygon><polygon points="550,250 600,250 600,300"></polygon><polygon points="450,250 500,200 500,250"></polygon><polygon points="400,250 450,200 400,200"></polygon><polygon points="450,250 400,250 450,300"></polygon><polygon points="450,300 450,250 500,250"></polygon><polygon points="400,300 500,300 400,400"></polygon><polygon points="600,300 550,350 550,300"></polygon><polygon points="550,300 550,350 500,350"></polygon><polygon points="550,400 550,350 500,400"></polygon><polygon points="600,400 550,400 600,350"></polygon><polygon points="800,300 800,200 700,300"></polygon><polygon points="700,300 700,200 600,200"></polygon><polygon points="700,300 700,400 600,300"></polygon><polygon points="700,400 800,400 700,300"></polygon><polygon points="400,0 300,100 400,100"></polygon><polygon points="200,100 200,0 300,0"></polygon><polygon points="200,200 300,100 200,100"></polygon><polygon points="400,200 300,200 400,100"></polygon><polygon points="100,0 200,0 100,100"></polygon><polygon points="0,100 0,0 100,0"></polygon><polygon points="100,100 0,200 100,200"></polygon><polygon points="200,100 100,200 100,100"></polygon><polygon points="100,300 200,200 100,200"></polygon><polygon points="0,200 0,300 100,300"></polygon><polygon points="100,400 100,300 0,300"></polygon><polygon points="200,300 100,400 200,400"></polygon><polygon points="400,300 300,300 400,200"></polygon><polygon points="300,200 300,300 200,300"></polygon><polygon points="250,300 250,350 300,300"></polygon><polygon points="250,300 200,350 200,300"></polygon><polygon points="250,350 200,400 250,400"></polygon><polygon points="250,350 300,400 250,400"></polygon><polygon points="400,300 400,350 350,300"></polygon><polygon points="300,350 350,300 350,350"></polygon><polygon points="350,350 350,400 300,350"></polygon><polygon points="400,400 400,350 350,350"></polygon><polygon points="400,400 300,400 300,500"></polygon><polygon points="300,500 300,400 200,400"></polygon><polygon points="200,600 300,600 300,500"></polygon><polygon points="400,500 400,600 300,600"></polygon><polygon points="100,400 200,400 200,500"></polygon><polygon points="100,400 100,500 0,500"></polygon><polygon points="0,500 100,500 100,600"></polygon><polygon points="100,600 200,500 100,500"></polygon><polygon points="200,600 200,800 0,800"></polygon><polygon points="400,700 300,600 300,700"></polygon><polygon points="200,700 300,600 300,700"></polygon><polygon points="200,700 300,800 300,700"></polygon><polygon points="400,800 400,700 300,700"></polygon><polygon points="700,400 800,500 800,400"></polygon><polygon points="600,500 700,400 700,500"></polygon><polygon points="600,500 700,600 700,500"></polygon><polygon points="700,600 700,500 800,500"></polygon><polygon points="600,400 500,400 600,500"></polygon><polygon points="500,500 500,400 400,500"></polygon><polygon points="500,500 500,550 450,550"></polygon><polygon points="450,500 450,550 400,550"></polygon><polygon points="450,550 400,550 450,600"></polygon><polygon points="500,550 450,600 500,600"></polygon><polygon points="600,550 550,500 600,500"></polygon><polygon points="550,550 500,500 550,500"></polygon><polygon points="550,550 500,600 500,550"></polygon><polygon points="550,550 550,600 600,600"></polygon><polygon points="600,600 500,700 600,700"></polygon><polygon points="500,700 500,600 400,700"></polygon><polygon points="400,800 400,700 500,800"></polygon><polygon points="600,800 600,700 500,700"></polygon><polygon points="800,800 600,600 600,800"></polygon></g><g fill="hsl(220, 62%, 45%)" stroke-width="3" stroke="hsl(220, 43%, 13%)"></g></svg>